<svg width="200" height="63" viewBox="0 0 200 63" fill="none" xmlns="http://www.w3.org/2000/svg">
<g opacity="0.75">
<path d="M0 20.9426C0 27.5347 5.08781 32.6667 11.5029 32.6667C15.9713 32.6667 18.6701 30.8086 20.4397 29.0389C21.4573 27.9771 22.2094 26.7383 22.7846 25.3668H17.918C17.5198 25.942 17.0331 26.4729 16.458 26.9153C15.4404 27.7559 13.8035 28.4637 11.5029 28.4637C8.18474 28.4637 5.35326 26.2516 4.64539 22.4911H23.0058V20.9426C23.0058 14.3506 17.9179 9.21854 11.5029 9.21854C5.08781 9.21854 0 14.3506 0 20.9426ZM4.8666 18.7305C5.57447 15.3682 8.40595 13.4215 11.5029 13.4215C15.5289 13.4215 17.6525 16.076 18.1392 18.7305H4.8666Z" fill="white"/>
<path d="M24.9777 9.66095L31.1716 32.2243H41.126L47.3199 9.66095H42.4533L37.5867 28.0213H34.7109L29.8443 9.66095H24.9777Z" fill="white"/>
<path d="M49.3057 20.9426C49.3057 27.5347 54.3935 32.6667 60.8085 32.6667C65.277 32.6667 67.9757 30.8086 69.7454 29.0389C70.763 27.9771 71.5151 26.7383 72.0902 25.3668H67.2236C66.8254 25.942 66.3388 26.4729 65.7636 26.9153C64.7461 27.7559 63.1091 28.4637 60.8085 28.4637C57.4904 28.4637 54.6589 26.2516 53.9511 22.4911H72.3114V20.9426C72.3114 14.3506 67.2236 9.21854 60.8085 9.21854C54.3935 9.21854 49.3057 14.3506 49.3057 20.9426ZM54.1723 18.7305C54.8801 15.3682 57.7116 13.4215 60.8085 13.4215C64.8346 13.4215 66.9582 16.076 67.4448 18.7305H54.1723Z" fill="white"/>
<path d="M76.4955 32.2243H81.1409V20.0578C81.1409 16.2972 83.7954 13.8639 87.3347 13.8639H90.2105V9.43975H87.5559C85.2996 9.43975 83.7954 10.3246 82.7778 11.2094C82.2027 11.7403 81.716 12.3155 81.3621 12.9791H81.1409V9.66095H76.4955V32.2243Z" fill="white"/>
</g>
<path d="M100.882 1.85157H94.8006L89.4577 32.2581H95.539L96.1037 29.0002H96.4078L96.7553 29.6084C97.3634 30.7812 99.4484 32.9096 103.488 32.9096C109.396 32.9096 115.043 27.6102 115.043 19.357C115.043 13.4495 111.22 9.45319 106.225 9.45319C103.923 9.45319 102.185 10.322 101.012 11.1473C100.317 11.6251 99.7091 12.1898 99.2312 12.7979H98.9706L100.882 1.85157ZM103.705 14.6657C106.833 14.6657 108.831 16.6639 108.831 19.9652C108.831 24.9171 105.921 27.6971 102.576 27.6971C99.4919 27.6971 97.4503 25.699 97.4503 22.3977C97.4503 17.4458 100.361 14.6657 103.705 14.6657Z" fill="white"/>
<path d="M124.625 27.6971C121.454 27.6971 119.282 25.6121 119.282 22.1805C119.282 17.5326 122.279 14.6657 125.885 14.6657C129.056 14.6657 131.228 16.7508 131.228 20.1823C131.228 24.8302 128.23 27.6971 124.625 27.6971ZM124.321 32.9096C131.445 32.9096 137.396 27.1324 137.396 20.0955C137.396 14.0142 132.791 9.45319 126.189 9.45319C119.065 9.45319 113.114 15.2304 113.114 22.2674C113.114 28.3487 117.718 32.9096 124.321 32.9096Z" fill="white"/>
<path d="M151.207 32.2581H157.288L161.198 10.1048H155.116L154.552 13.406H154.248L153.9 12.7545C153.248 11.6251 151.207 9.45319 147.167 9.45319C141.26 9.45319 135.613 14.7961 135.613 23.0492C135.613 29.0002 139.435 32.9096 144.431 32.9096C146.689 32.9096 148.47 32.0843 149.643 31.259C150.338 30.7812 150.946 30.2165 151.424 29.5649H151.685L151.207 32.2581ZM146.95 27.6971C143.822 27.6971 141.824 25.699 141.824 22.3977C141.824 17.4458 144.735 14.6657 148.079 14.6657C151.163 14.6657 153.205 16.6639 153.205 19.9652C153.205 24.9171 150.295 27.6971 146.95 27.6971Z" fill="white"/>
<path d="M175.608 15.5345L176.65 9.67038H173.957C171.655 9.67038 170.178 10.4523 169.179 11.2776C168.614 11.7554 168.18 12.2767 167.832 12.8413H167.615L168.093 10.1048H162.012L158.102 32.2581H164.184L166.355 20.052C166.92 16.8811 169.135 15.5345 172.393 15.5345H175.608Z" fill="white"/>
<path d="M188.062 32.2581H194.143L199.486 1.85157H193.405L191.406 13.406H191.102L190.755 12.7545C190.103 11.6251 188.062 9.45319 184.022 9.45319C178.114 9.45319 172.468 14.7961 172.468 23.0492C172.468 29.0002 176.29 32.9096 181.285 32.9096C183.544 32.9096 185.325 32.0843 186.498 31.259C187.193 30.7812 187.801 30.2165 188.279 29.5649H188.54L188.062 32.2581ZM183.805 27.6971C180.677 27.6971 178.679 25.699 178.679 22.3977C178.679 17.4458 181.589 14.6657 184.934 14.6657C188.018 14.6657 190.06 16.6639 190.06 19.9652C190.06 24.9171 187.149 27.6971 183.805 27.6971Z" fill="white"/>
<path d="M17.1618 48.1243C18.0858 48.1243 18.9138 48.3283 19.6458 48.7363C20.3778 49.1443 20.9478 49.7143 21.3558 50.4463C21.7758 51.1783 21.9858 52.0243 21.9858 52.9843C21.9858 53.9443 21.7758 54.7963 21.3558 55.5403C20.9478 56.2723 20.3778 56.8423 19.6458 57.2503C18.9138 57.6583 18.0858 57.8623 17.1618 57.8623C16.4778 57.8623 15.8478 57.7303 15.2718 57.4663C14.7078 57.2023 14.2278 56.8183 13.8318 56.3143V61.2463H12.1038V48.2143H13.7598V49.7263C14.1438 49.1983 14.6298 48.8023 15.2178 48.5383C15.8058 48.2623 16.4538 48.1243 17.1618 48.1243ZM17.0178 56.3503C17.6298 56.3503 18.1758 56.2123 18.6558 55.9363C19.1478 55.6483 19.5318 55.2523 19.8078 54.7483C20.0958 54.2323 20.2398 53.6443 20.2398 52.9843C20.2398 52.3243 20.0958 51.7423 19.8078 51.2383C19.5318 50.7223 19.1478 50.3263 18.6558 50.0503C18.1758 49.7743 17.6298 49.6363 17.0178 49.6363C16.4178 49.6363 15.8718 49.7803 15.3798 50.0683C14.8998 50.3443 14.5158 50.7343 14.2278 51.2383C13.9518 51.7423 13.8138 52.3243 13.8138 52.9843C13.8138 53.6443 13.9518 54.2323 14.2278 54.7483C14.5038 55.2523 14.8878 55.6483 15.3798 55.9363C15.8718 56.2123 16.4178 56.3503 17.0178 56.3503ZM26.0294 49.8163C26.3294 49.2643 26.7734 48.8443 27.3614 48.5563C27.9494 48.2683 28.6634 48.1243 29.5034 48.1243V49.7983C29.4074 49.7863 29.2754 49.7803 29.1074 49.7803C28.1714 49.7803 27.4334 50.0623 26.8934 50.6263C26.3654 51.1783 26.1014 51.9703 26.1014 53.0023V57.7543H24.3734V48.2143H26.0294V49.8163ZM35.6312 57.8623C34.6832 57.8623 33.8312 57.6523 33.0752 57.2323C32.3192 56.8123 31.7252 56.2363 31.2932 55.5043C30.8732 54.7603 30.6632 53.9203 30.6632 52.9843C30.6632 52.0483 30.8732 51.2143 31.2932 50.4823C31.7252 49.7383 32.3192 49.1623 33.0752 48.7543C33.8312 48.3343 34.6832 48.1243 35.6312 48.1243C36.5792 48.1243 37.4252 48.3343 38.1692 48.7543C38.9252 49.1623 39.5132 49.7383 39.9332 50.4823C40.3652 51.2143 40.5812 52.0483 40.5812 52.9843C40.5812 53.9203 40.3652 54.7603 39.9332 55.5043C39.5132 56.2363 38.9252 56.8123 38.1692 57.2323C37.4252 57.6523 36.5792 57.8623 35.6312 57.8623ZM35.6312 56.3503C36.2432 56.3503 36.7892 56.2123 37.2692 55.9363C37.7612 55.6483 38.1452 55.2523 38.4212 54.7483C38.6972 54.2323 38.8352 53.6443 38.8352 52.9843C38.8352 52.3243 38.6972 51.7423 38.4212 51.2383C38.1452 50.7223 37.7612 50.3263 37.2692 50.0503C36.7892 49.7743 36.2432 49.6363 35.6312 49.6363C35.0192 49.6363 34.4672 49.7743 33.9752 50.0503C33.4952 50.3263 33.1112 50.7223 32.8232 51.2383C32.5472 51.7423 32.4092 52.3243 32.4092 52.9843C32.4092 53.6443 32.5472 54.2323 32.8232 54.7483C33.1112 55.2523 33.4952 55.6483 33.9752 55.9363C34.4672 56.2123 35.0192 56.3503 35.6312 56.3503ZM41.747 61.3543C41.327 61.3543 40.937 61.3063 40.577 61.2103C40.217 61.1143 39.917 60.9703 39.677 60.7783L40.235 59.4463C40.595 59.7463 41.063 59.8963 41.639 59.8963C42.095 59.8963 42.443 59.7523 42.683 59.4643C42.935 59.1883 43.061 58.7743 43.061 58.2223V48.2143H44.789V58.1863C44.789 59.1703 44.525 59.9443 43.997 60.5083C43.469 61.0723 42.719 61.3543 41.747 61.3543ZM43.925 46.3783C43.589 46.3783 43.307 46.2703 43.079 46.0543C42.863 45.8383 42.755 45.5743 42.755 45.2623C42.755 44.9503 42.863 44.6863 43.079 44.4703C43.307 44.2423 43.589 44.1283 43.925 44.1283C44.261 44.1283 44.537 44.2363 44.753 44.4523C44.981 44.6563 45.095 44.9143 45.095 45.2263C45.095 45.5503 44.981 45.8263 44.753 46.0543C44.537 46.2703 44.261 46.3783 43.925 46.3783ZM56.7082 53.0383C56.7082 53.1703 56.6962 53.3443 56.6722 53.5603H48.9322C49.0402 54.4003 49.4062 55.0783 50.0302 55.5943C50.6662 56.0983 51.4522 56.3503 52.3882 56.3503C53.5282 56.3503 54.4462 55.9663 55.1422 55.1983L56.0962 56.3143C55.6642 56.8183 55.1242 57.2023 54.4762 57.4663C53.8402 57.7303 53.1262 57.8623 52.3342 57.8623C51.3262 57.8623 50.4322 57.6583 49.6522 57.2503C48.8722 56.8303 48.2662 56.2483 47.8342 55.5043C47.4142 54.7603 47.2042 53.9203 47.2042 52.9843C47.2042 52.0603 47.4082 51.2263 47.8162 50.4823C48.2362 49.7383 48.8062 49.1623 49.5262 48.7543C50.2582 48.3343 51.0802 48.1243 51.9922 48.1243C52.9042 48.1243 53.7142 48.3343 54.4222 48.7543C55.1422 49.1623 55.7002 49.7383 56.0962 50.4823C56.5042 51.2263 56.7082 52.0783 56.7082 53.0383ZM51.9922 49.5823C51.1642 49.5823 50.4682 49.8343 49.9042 50.3383C49.3522 50.8423 49.0282 51.5023 48.9322 52.3183H55.0522C54.9562 51.5143 54.6262 50.8603 54.0622 50.3563C53.5102 49.8403 52.8202 49.5823 51.9922 49.5823ZM63.2657 57.8623C62.2937 57.8623 61.4237 57.6523 60.6557 57.2323C59.8997 56.8123 59.3057 56.2363 58.8737 55.5043C58.4417 54.7603 58.2257 53.9203 58.2257 52.9843C58.2257 52.0483 58.4417 51.2143 58.8737 50.4823C59.3057 49.7383 59.8997 49.1623 60.6557 48.7543C61.4237 48.3343 62.2937 48.1243 63.2657 48.1243C64.1297 48.1243 64.8977 48.2983 65.5697 48.6463C66.2537 48.9943 66.7817 49.4983 67.1537 50.1583L65.8397 51.0043C65.5397 50.5483 65.1677 50.2063 64.7237 49.9783C64.2797 49.7503 63.7877 49.6363 63.2477 49.6363C62.6237 49.6363 62.0597 49.7743 61.5557 50.0503C61.0637 50.3263 60.6737 50.7223 60.3857 51.2383C60.1097 51.7423 59.9717 52.3243 59.9717 52.9843C59.9717 53.6563 60.1097 54.2503 60.3857 54.7663C60.6737 55.2703 61.0637 55.6603 61.5557 55.9363C62.0597 56.2123 62.6237 56.3503 63.2477 56.3503C63.7877 56.3503 64.2797 56.2363 64.7237 56.0083C65.1677 55.7803 65.5397 55.4383 65.8397 54.9823L67.1537 55.8103C66.7817 56.4703 66.2537 56.9803 65.5697 57.3403C64.8977 57.6883 64.1297 57.8623 63.2657 57.8623ZM74.878 57.1963C74.626 57.4123 74.314 57.5803 73.942 57.7003C73.57 57.8083 73.186 57.8623 72.79 57.8623C71.83 57.8623 71.086 57.6043 70.558 57.0883C70.03 56.5723 69.766 55.8343 69.766 54.8743V49.6363H68.146V48.2143H69.766V46.1263H71.494V48.2143H74.23V49.6363H71.494V54.8023C71.494 55.3183 71.62 55.7143 71.872 55.9903C72.136 56.2663 72.508 56.4043 72.988 56.4043C73.516 56.4043 73.966 56.2543 74.338 55.9543L74.878 57.1963ZM84.5371 57.8623C83.7571 57.8623 83.0071 57.7603 82.2871 57.5563C81.5671 57.3403 81.0031 57.0703 80.5951 56.7463L81.3151 55.3783C81.7351 55.6783 82.2451 55.9183 82.8451 56.0983C83.4451 56.2783 84.0511 56.3683 84.6631 56.3683C86.1751 56.3683 86.9311 55.9363 86.9311 55.0723C86.9311 54.7843 86.8291 54.5563 86.6251 54.3883C86.4211 54.2203 86.1631 54.1003 85.8511 54.0283C85.5511 53.9443 85.1191 53.8543 84.5551 53.7583C83.7871 53.6383 83.1571 53.5003 82.6651 53.3443C82.1851 53.1883 81.7711 52.9243 81.4231 52.5523C81.0751 52.1803 80.9011 51.6583 80.9011 50.9863C80.9011 50.1223 81.2611 49.4323 81.9811 48.9163C82.7011 48.3883 83.6671 48.1243 84.8791 48.1243C85.5151 48.1243 86.1511 48.2023 86.7871 48.3583C87.4231 48.5143 87.9451 48.7243 88.3531 48.9883L87.6151 50.3563C86.8351 49.8523 85.9171 49.6003 84.8611 49.6003C84.1291 49.6003 83.5711 49.7203 83.1871 49.9603C82.8031 50.2003 82.6111 50.5183 82.6111 50.9143C82.6111 51.2263 82.7191 51.4723 82.9351 51.6523C83.1511 51.8323 83.4151 51.9643 83.7271 52.0483C84.0511 52.1323 84.5011 52.2283 85.0771 52.3363C85.8451 52.4683 86.4631 52.6123 86.9311 52.7683C87.4111 52.9123 87.8191 53.1643 88.1551 53.5243C88.4911 53.8843 88.6591 54.3883 88.6591 55.0363C88.6591 55.9003 88.2871 56.5903 87.5431 57.1063C86.8111 57.6103 85.8091 57.8623 84.5371 57.8623ZM99.7107 48.2143V57.7543H98.0727V56.3143C97.7247 56.8063 97.2627 57.1903 96.6867 57.4663C96.1227 57.7303 95.5047 57.8623 94.8327 57.8623C93.5607 57.8623 92.5587 57.5143 91.8267 56.8183C91.0947 56.1103 90.7287 55.0723 90.7287 53.7043V48.2143H92.4567V53.5063C92.4567 54.4303 92.6787 55.1323 93.1227 55.6123C93.5667 56.0803 94.2027 56.3143 95.0307 56.3143C95.9427 56.3143 96.6627 56.0383 97.1907 55.4863C97.7187 54.9343 97.9827 54.1543 97.9827 53.1463V48.2143H99.7107ZM108.058 48.1243C108.982 48.1243 109.81 48.3283 110.542 48.7363C111.274 49.1443 111.844 49.7143 112.252 50.4463C112.672 51.1783 112.882 52.0243 112.882 52.9843C112.882 53.9443 112.672 54.7963 112.252 55.5403C111.844 56.2723 111.274 56.8423 110.542 57.2503C109.81 57.6583 108.982 57.8623 108.058 57.8623C107.35 57.8623 106.702 57.7243 106.114 57.4483C105.526 57.1723 105.04 56.7703 104.656 56.2423V57.7543H103V44.3983H104.728V49.6543C105.112 49.1503 105.592 48.7723 106.168 48.5203C106.744 48.2563 107.374 48.1243 108.058 48.1243ZM107.914 56.3503C108.526 56.3503 109.072 56.2123 109.552 55.9363C110.044 55.6483 110.428 55.2523 110.704 54.7483C110.992 54.2323 111.136 53.6443 111.136 52.9843C111.136 52.3243 110.992 51.7423 110.704 51.2383C110.428 50.7223 110.044 50.3263 109.552 50.0503C109.072 49.7743 108.526 49.6363 107.914 49.6363C107.314 49.6363 106.768 49.7743 106.276 50.0503C105.784 50.3263 105.4 50.7223 105.124 51.2383C104.848 51.7423 104.71 52.3243 104.71 52.9843C104.71 53.6443 104.848 54.2323 105.124 54.7483C105.4 55.2523 105.784 55.6483 106.276 55.9363C106.768 56.2123 107.314 56.3503 107.914 56.3503ZM120.364 48.1243C121.576 48.1243 122.536 48.4783 123.244 49.1863C123.964 49.8823 124.324 50.9083 124.324 52.2643V57.7543H122.596V52.4623C122.596 51.5383 122.374 50.8423 121.93 50.3743C121.486 49.9063 120.85 49.6723 120.022 49.6723C119.086 49.6723 118.348 49.9483 117.808 50.5003C117.268 51.0403 116.998 51.8203 116.998 52.8403V57.7543H115.27V44.3983H116.998V49.5643C117.358 49.1083 117.826 48.7543 118.402 48.5023C118.99 48.2503 119.644 48.1243 120.364 48.1243ZM136.197 53.0383C136.197 53.1703 136.185 53.3443 136.161 53.5603H128.421C128.529 54.4003 128.895 55.0783 129.519 55.5943C130.155 56.0983 130.941 56.3503 131.877 56.3503C133.017 56.3503 133.935 55.9663 134.631 55.1983L135.585 56.3143C135.153 56.8183 134.613 57.2023 133.965 57.4663C133.329 57.7303 132.615 57.8623 131.823 57.8623C130.815 57.8623 129.921 57.6583 129.141 57.2503C128.361 56.8303 127.755 56.2483 127.323 55.5043C126.903 54.7603 126.693 53.9203 126.693 52.9843C126.693 52.0603 126.897 51.2263 127.305 50.4823C127.725 49.7383 128.295 49.1623 129.015 48.7543C129.747 48.3343 130.569 48.1243 131.481 48.1243C132.393 48.1243 133.203 48.3343 133.911 48.7543C134.631 49.1623 135.189 49.7383 135.585 50.4823C135.993 51.2263 136.197 52.0783 136.197 53.0383ZM131.481 49.5823C130.653 49.5823 129.957 49.8343 129.393 50.3383C128.841 50.8423 128.517 51.5023 128.421 52.3183H134.541C134.445 51.5143 134.115 50.8603 133.551 50.3563C132.999 49.8403 132.309 49.5823 131.481 49.5823ZM141.806 48.1243C143.126 48.1243 144.134 48.4483 144.83 49.0963C145.538 49.7443 145.892 50.7103 145.892 51.9943V57.7543H144.254V56.4943C143.966 56.9383 143.552 57.2803 143.012 57.5203C142.484 57.7483 141.854 57.8623 141.122 57.8623C140.054 57.8623 139.196 57.6043 138.548 57.0883C137.912 56.5723 137.594 55.8943 137.594 55.0543C137.594 54.2143 137.9 53.5423 138.512 53.0383C139.124 52.5223 140.096 52.2643 141.428 52.2643H144.164V51.9223C144.164 51.1783 143.948 50.6083 143.516 50.2123C143.084 49.8163 142.448 49.6183 141.608 49.6183C141.044 49.6183 140.492 49.7143 139.952 49.9063C139.412 50.0863 138.956 50.3323 138.584 50.6443L137.864 49.3483C138.356 48.9523 138.944 48.6523 139.628 48.4483C140.312 48.2323 141.038 48.1243 141.806 48.1243ZM141.41 56.5303C142.07 56.5303 142.64 56.3863 143.12 56.0983C143.6 55.7983 143.948 55.3783 144.164 54.8383V53.5063H141.5C140.036 53.5063 139.304 53.9983 139.304 54.9823C139.304 55.4623 139.49 55.8403 139.862 56.1163C140.234 56.3923 140.75 56.5303 141.41 56.5303ZM158.143 44.3983V57.7543H156.487V56.2423C156.103 56.7703 155.617 57.1723 155.029 57.4483C154.441 57.7243 153.793 57.8623 153.085 57.8623C152.161 57.8623 151.333 57.6583 150.601 57.2503C149.869 56.8423 149.293 56.2723 148.873 55.5403C148.465 54.7963 148.261 53.9443 148.261 52.9843C148.261 52.0243 148.465 51.1783 148.873 50.4463C149.293 49.7143 149.869 49.1443 150.601 48.7363C151.333 48.3283 152.161 48.1243 153.085 48.1243C153.769 48.1243 154.399 48.2563 154.975 48.5203C155.551 48.7723 156.031 49.1503 156.415 49.6543V44.3983H158.143ZM153.229 56.3503C153.829 56.3503 154.375 56.2123 154.867 55.9363C155.359 55.6483 155.743 55.2523 156.019 54.7483C156.295 54.2323 156.433 53.6443 156.433 52.9843C156.433 52.3243 156.295 51.7423 156.019 51.2383C155.743 50.7223 155.359 50.3263 154.867 50.0503C154.375 49.7743 153.829 49.6363 153.229 49.6363C152.617 49.6363 152.065 49.7743 151.573 50.0503C151.093 50.3263 150.709 50.7223 150.421 51.2383C150.145 51.7423 150.007 52.3243 150.007 52.9843C150.007 53.6443 150.145 54.2323 150.421 54.7483C150.709 55.2523 151.093 55.6483 151.573 55.9363C152.065 56.2123 152.617 56.3503 153.229 56.3503ZM161.412 48.2143H163.14V57.7543H161.412V48.2143ZM162.276 46.3783C161.94 46.3783 161.658 46.2703 161.43 46.0543C161.214 45.8383 161.106 45.5743 161.106 45.2623C161.106 44.9503 161.214 44.6863 161.43 44.4703C161.658 44.2423 161.94 44.1283 162.276 44.1283C162.612 44.1283 162.888 44.2363 163.104 44.4523C163.332 44.6563 163.446 44.9143 163.446 45.2263C163.446 45.5503 163.332 45.8263 163.104 46.0543C162.888 46.2703 162.612 46.3783 162.276 46.3783ZM171.534 48.1243C172.746 48.1243 173.706 48.4783 174.414 49.1863C175.134 49.8823 175.494 50.9083 175.494 52.2643V57.7543H173.766V52.4623C173.766 51.5383 173.544 50.8423 173.1 50.3743C172.656 49.9063 172.02 49.6723 171.192 49.6723C170.256 49.6723 169.518 49.9483 168.978 50.5003C168.438 51.0403 168.168 51.8203 168.168 52.8403V57.7543H166.44V48.2143H168.096V49.6543C168.444 49.1623 168.912 48.7843 169.5 48.5203C170.1 48.2563 170.778 48.1243 171.534 48.1243ZM187.87 48.2143V56.4583C187.87 58.1263 187.456 59.3563 186.628 60.1483C185.8 60.9523 184.564 61.3543 182.92 61.3543C182.02 61.3543 181.162 61.2283 180.346 60.9763C179.53 60.7363 178.87 60.3883 178.366 59.9323L179.194 58.6003C179.638 58.9843 180.184 59.2843 180.832 59.5003C181.492 59.7283 182.17 59.8423 182.866 59.8423C183.982 59.8423 184.804 59.5783 185.332 59.0503C185.872 58.5223 186.142 57.7183 186.142 56.6383V55.8823C185.734 56.3743 185.23 56.7463 184.63 56.9983C184.042 57.2383 183.4 57.3583 182.704 57.3583C181.792 57.3583 180.964 57.1663 180.22 56.7823C179.488 56.3863 178.912 55.8403 178.492 55.1443C178.072 54.4363 177.862 53.6323 177.862 52.7323C177.862 51.8323 178.072 51.0343 178.492 50.3383C178.912 49.6303 179.488 49.0843 180.22 48.7003C180.964 48.3163 181.792 48.1243 182.704 48.1243C183.424 48.1243 184.09 48.2563 184.702 48.5203C185.326 48.7843 185.836 49.1743 186.232 49.6903V48.2143H187.87ZM182.902 55.8463C183.526 55.8463 184.084 55.7143 184.576 55.4503C185.08 55.1863 185.47 54.8203 185.746 54.3523C186.034 53.8723 186.178 53.3323 186.178 52.7323C186.178 51.8083 185.872 51.0643 185.26 50.5003C184.648 49.9243 183.862 49.6363 182.902 49.6363C181.93 49.6363 181.138 49.9243 180.526 50.5003C179.914 51.0643 179.608 51.8083 179.608 52.7323C179.608 53.3323 179.746 53.8723 180.022 54.3523C180.31 54.8203 180.7 55.1863 181.192 55.4503C181.696 55.7143 182.266 55.8463 182.902 55.8463Z" fill="white"/>
</svg>
