<svg width="21" height="21" viewBox="0 0 21 21" fill="none" xmlns="http://www.w3.org/2000/svg">
<path fillRule="evenodd" clipRule="evenodd" d="M0.688599 16.3332C0.688599 14.032 2.55408 12.1665 4.85527 12.1665H11.5219C13.8231 12.1665 15.6886 14.032 15.6886 16.3332V17.9998C15.6886 18.4601 15.3155 18.8332 14.8553 18.8332C14.395 18.8332 14.0219 18.4601 14.0219 17.9998V16.3332C14.0219 14.9525 12.9026 13.8332 11.5219 13.8332H4.85527C3.47455 13.8332 2.35527 14.9525 2.35527 16.3332V17.9998C2.35527 18.4601 1.98217 18.8332 1.52193 18.8332C1.06169 18.8332 0.688599 18.4601 0.688599 17.9998V16.3332Z" fill="#6347F5"/>
<path fillRule="evenodd" clipRule="evenodd" d="M4.02197 6.33317C4.02197 4.03198 5.88745 2.1665 8.18864 2.1665C10.4898 2.1665 12.3553 4.03198 12.3553 6.33317C12.3553 8.63436 10.4898 10.4998 8.18864 10.4998C5.88745 10.4998 4.02197 8.63436 4.02197 6.33317ZM8.18864 3.83317C6.80793 3.83317 5.68864 4.95246 5.68864 6.33317C5.68864 7.71388 6.80793 8.83317 8.18864 8.83317C9.56935 8.83317 10.6886 7.71388 10.6886 6.33317C10.6886 4.95246 9.56935 3.83317 8.18864 3.83317Z" fill="#6347F5"/>
<path fillRule="evenodd" clipRule="evenodd" d="M16.5484 12.9001C16.6635 12.4545 17.118 12.1865 17.5636 12.3016C19.4021 12.7763 20.6872 14.434 20.6886 16.3328L20.6886 18.0001C20.6886 18.4603 20.3155 18.8334 19.8553 18.8334C19.395 18.8334 19.0219 18.4603 19.0219 18.0001L19.0219 16.3341C19.0219 16.334 19.0219 16.3341 19.0219 16.3341C19.021 15.1949 18.25 14.2001 17.1469 13.9153C16.7013 13.8003 16.4333 13.3457 16.5484 12.9001Z" fill="#6347F5"/>
<path fillRule="evenodd" clipRule="evenodd" d="M13.2146 2.90174C13.3288 2.45588 13.7827 2.18699 14.2286 2.30114C16.0722 2.7732 17.3618 4.43447 17.3618 6.3376C17.3618 8.24074 16.0722 9.90201 14.2286 10.3741C13.7827 10.4882 13.3288 10.2193 13.2146 9.77347C13.1004 9.32761 13.3693 8.87363 13.8152 8.75948C14.9214 8.47625 15.6951 7.47948 15.6951 6.3376C15.6951 5.19572 14.9214 4.19896 13.8152 3.91573C13.3693 3.80157 13.1004 3.34759 13.2146 2.90174Z" fill="#6347F5"/>
</svg>
